<svg xmlns="http://www.w3.org/2000/svg" width="500" zoomAndPan="magnify"
     viewBox="0 0 375 374.999991" height="500" preserveAspectRatio="xMidYMid meet" version="1.0">
    <defs>
        <clipPath id="225b68a0a6">
            <path d="M 15.625 77 L 301 77 L 301 336 L 15.625 336 Z M 15.625 77 " clip-rule="nonzero"/>
        </clipPath>
        <clipPath id="3b7744ad98">
            <path d="M 15.625 158 L 82 158 L 82 196 L 15.625 196 Z M 15.625 158 " clip-rule="nonzero"/>
        </clipPath>
    </defs>
    <path fill="#6f9134"
          d="M 310.054688 39.367188 C 332.816406 42.96875 357.324219 119.59375 328.695312 142.722656 C 303.316406 163.238281 242.339844 136.679688 239.929688 112.996094 C 239.203125 105.820312 248.699219 95.59375 267.71875 75.367188 C 291.09375 50.613281 302.910156 38.261719 310.054688 39.367188 Z M 310.054688 39.367188 "
          fill-opacity="1" fill-rule="nonzero"/>
    <g clip-path="url(#225b68a0a6)">
        <path fill="#82ae42"
              d="M 269.925781 213.1875 C 258.253906 218.679688 250.238281 215.425781 228.578125 209.84375 L 228.546875 209.84375 C 222.074219 208.160156 214.351562 206.269531 204.941406 204.351562 C 136.503906 190.320312 106.304688 200.460938 97.160156 203.773438 C 86.066406 207.8125 69.082031 217.226562 64.492188 227.539062 C 56.59375 245.292969 81.59375 274.527344 103.953125 289.289062 C 113.679688 295.707031 144.34375 315.933594 168.820312 302.480469 C 184.878906 293.644531 195.738281 271.707031 189.988281 257.703125 C 187.78125 252.355469 181.742188 244.714844 174.394531 245.207031 C 169.894531 245.496094 165.25 248.8125 163.652344 253.199219 C 160.777344 261.042969 169.257812 268.191406 167.050781 270.660156 C 164.40625 273.625 147.390625 268.65625 142.050781 255.378906 C 139.058594 247.96875 140.191406 238.960938 144.953125 232.507812 C 151.71875 223.328125 163.273438 222.863281 168.761719 222.515625 C 185.835938 221.410156 205.203125 230.765625 214.640625 246.542969 C 214.8125 246.863281 215.019531 247.183594 215.191406 247.472656 C 217.195312 251.078125 218.648438 254.824219 219.546875 258.660156 C 220.246094 261.539062 220.621094 264.472656 220.765625 267.40625 C 220.96875 271.824219 220.5625 276.269531 219.664062 280.6875 L 219.664062 280.714844 C 219.054688 283.707031 218.210938 286.699219 217.167969 289.636719 L 217.167969 289.664062 C 215.773438 293.558594 214.058594 297.335938 212.027344 300.9375 C 207.03125 309.832031 200.382812 317.53125 193.183594 322.90625 C 180.636719 332.292969 166.730469 334.324219 161.039062 335.109375 C 154.359375 336.011719 141.003906 336.941406 120.792969 330.054688 C 103.519531 324.183594 63.59375 310.585938 38.042969 271.445312 C 35.339844 267.320312 32.785156 262.902344 30.460938 258.167969 C 29.941406 257.121094 29.332031 255.84375 28.691406 254.417969 C 26.628906 249.945312 24.105469 243.753906 21.808594 236.316406 C 19.601562 229.195312 17.65625 220.914062 16.554688 211.851562 C 15.914062 206.503906 15.566406 200.894531 15.683594 195.082031 C 15.886719 183.488281 17.832031 171.140625 22.621094 158.617188 C 22.652344 158.53125 22.679688 158.441406 22.738281 158.328125 C 24.800781 152.921875 27.269531 147.777344 30.144531 143.011719 C 37.488281 130.578125 47.1875 120.203125 58.335938 111.660156 C 63.332031 107.824219 68.644531 104.339844 74.164062 101.230469 C 85.949219 94.546875 98.726562 89.433594 111.707031 85.742188 C 117.484375 84.085938 123.320312 82.71875 129.097656 81.617188 L 129.246094 81.585938 C 141.960938 79.144531 154.535156 77.984375 166.238281 77.925781 L 166.410156 77.894531 C 172.945312 77.867188 179.214844 78.15625 185.050781 78.769531 C 185.71875 78.828125 186.417969 78.914062 187.085938 79 L 187.113281 79 C 200.992188 80.597656 213.332031 83.941406 223.875 87.890625 C 236.273438 92.511719 246.171875 97.945312 253.113281 102.304688 L 253.140625 102.304688 C 256.886719 104.628906 259.734375 106.605469 261.707031 108 C 263.042969 108.929688 264.378906 109.859375 265.6875 110.789062 C 270.332031 114.101562 274.804688 117.386719 278.957031 120.871094 C 280.871094 122.5 282.671875 124.15625 284.414062 125.871094 C 291.644531 133.046875 297.101562 141.355469 299.195312 152.195312 C 299.511719 153.9375 299.773438 155.710938 299.890625 157.484375 C 299.890625 157.511719 299.890625 157.511719 299.890625 157.511719 C 301.777344 180.089844 288.683594 204.351562 269.925781 213.1875 Z M 269.925781 213.1875 "
              fill-opacity="1" fill-rule="nonzero"/>
    </g>
    <path fill="#97be48"
          d="M 186.359375 167.652344 C 187.898438 170.09375 184.472656 172.914062 181.21875 183.433594 C 179.359375 189.445312 177.269531 196.1875 179.652344 198.046875 C 182.875 200.574219 190.074219 190.929688 198.640625 192.90625 C 205.667969 194.53125 211.15625 203.421875 209.238281 207.230469 C 208.222656 209.265625 205.523438 208.886719 188.769531 209.320312 C 175.324219 209.671875 173.03125 210.019531 170.039062 207.867188 C 165.074219 204.324219 163.972656 198.105469 163.160156 193.222656 C 162.316406 188.371094 160.457031 177.445312 167.367188 170.761719 C 173.410156 164.980469 184.210938 164.253906 186.359375 167.652344 Z M 186.359375 167.652344 "
          fill-opacity="1" fill-rule="nonzero"/>
    <path fill="#97be48"
          d="M 356.105469 181.804688 C 355.871094 182.558594 355.613281 183.285156 355.320312 184.011719 C 354.742188 185.496094 354.074219 186.976562 353.316406 188.371094 C 353.144531 188.777344 352.941406 189.15625 352.707031 189.5625 C 351.199219 192.265625 349.425781 194.734375 347.421875 196.945312 C 342.050781 202.871094 335.375 206.386719 311.070312 211.296875 C 251.371094 223.355469 239.292969 222.105469 232.613281 213.1875 C 230.378906 210.195312 229.972656 205.136719 229.273438 195.140625 C 228.082031 178.519531 229.535156 163.613281 233.398438 143.21875 C 238.421875 116.804688 241.0625 103.464844 247.65625 99.019531 C 260.777344 90.1875 280.40625 97.277344 285.835938 99.253906 C 292.574219 101.695312 298.875 106.199219 311.476562 115.207031 C 323.410156 123.75 331.367188 130.636719 335.226562 134.179688 C 348.03125 145.949219 354.421875 151.847656 356.6875 159.023438 C 359.007812 166.375 358.515625 174.453125 356.105469 181.804688 Z M 356.105469 181.804688 "
          fill-opacity="1" fill-rule="nonzero"/>
    <path fill="#ffffff"
          d="M 326.140625 135.632812 C 326.140625 136.792969 326.082031 137.949219 325.96875 139.101562 C 325.855469 140.253906 325.6875 141.402344 325.460938 142.539062 C 325.234375 143.675781 324.953125 144.796875 324.617188 145.90625 C 324.28125 147.015625 323.890625 148.105469 323.449219 149.175781 C 323.003906 150.246094 322.507812 151.292969 321.964844 152.316406 C 321.417969 153.339844 320.824219 154.332031 320.179688 155.296875 C 319.535156 156.257812 318.847656 157.1875 318.113281 158.085938 C 317.378906 158.980469 316.601562 159.839844 315.78125 160.660156 C 314.960938 161.476562 314.105469 162.253906 313.210938 162.992188 C 312.3125 163.726562 311.386719 164.414062 310.421875 165.058594 C 309.457031 165.703125 308.464844 166.300781 307.445312 166.84375 C 306.421875 167.390625 305.378906 167.886719 304.308594 168.332031 C 303.238281 168.773438 302.148438 169.164062 301.039062 169.5 C 299.929688 169.835938 298.808594 170.117188 297.671875 170.34375 C 296.535156 170.570312 295.394531 170.742188 294.238281 170.855469 C 293.085938 170.96875 291.933594 171.023438 290.773438 171.023438 C 289.613281 171.023438 288.460938 170.96875 287.308594 170.855469 C 286.152344 170.742188 285.011719 170.570312 283.875 170.34375 C 282.738281 170.117188 281.617188 169.835938 280.507812 169.5 C 279.398438 169.164062 278.308594 168.773438 277.238281 168.332031 C 276.167969 167.886719 275.125 167.390625 274.101562 166.84375 C 273.082031 166.300781 272.089844 165.703125 271.125 165.058594 C 270.160156 164.417969 269.234375 163.726562 268.335938 162.992188 C 267.441406 162.253906 266.585938 161.476562 265.765625 160.660156 C 264.945312 159.839844 264.167969 158.980469 263.433594 158.085938 C 262.699219 157.1875 262.011719 156.257812 261.367188 155.296875 C 260.722656 154.332031 260.128906 153.339844 259.582031 152.316406 C 259.039062 151.292969 258.542969 150.246094 258.097656 149.175781 C 257.65625 148.105469 257.265625 147.015625 256.929688 145.90625 C 256.59375 144.796875 256.3125 143.675781 256.085938 142.539062 C 255.859375 141.402344 255.691406 140.253906 255.578125 139.101562 C 255.464844 137.949219 255.40625 136.792969 255.40625 135.632812 C 255.40625 134.472656 255.464844 133.316406 255.578125 132.164062 C 255.691406 131.011719 255.859375 129.867188 256.085938 128.726562 C 256.3125 127.589844 256.59375 126.46875 256.929688 125.359375 C 257.265625 124.25 257.65625 123.160156 258.097656 122.089844 C 258.542969 121.019531 259.039062 119.972656 259.582031 118.949219 C 260.128906 117.925781 260.722656 116.933594 261.367188 115.96875 C 262.011719 115.007812 262.699219 114.078125 263.433594 113.179688 C 264.167969 112.285156 264.945312 111.425781 265.765625 110.605469 C 266.585938 109.789062 267.441406 109.011719 268.335938 108.273438 C 269.234375 107.539062 270.160156 106.851562 271.125 106.207031 C 272.089844 105.5625 273.082031 104.964844 274.101562 104.421875 C 275.125 103.875 276.167969 103.378906 277.238281 102.933594 C 278.308594 102.492188 279.398438 102.101562 280.507812 101.765625 C 281.617188 101.429688 282.738281 101.148438 283.875 100.921875 C 285.011719 100.695312 286.152344 100.527344 287.308594 100.410156 C 288.460938 100.296875 289.613281 100.242188 290.773438 100.242188 C 291.933594 100.242188 293.085938 100.296875 294.238281 100.410156 C 295.394531 100.527344 296.535156 100.695312 297.671875 100.921875 C 298.808594 101.148438 299.929688 101.429688 301.039062 101.765625 C 302.148438 102.101562 303.238281 102.492188 304.308594 102.933594 C 305.378906 103.378906 306.421875 103.875 307.445312 104.421875 C 308.464844 104.964844 309.457031 105.5625 310.421875 106.207031 C 311.386719 106.851562 312.3125 107.539062 313.210938 108.273438 C 314.105469 109.011719 314.960938 109.789062 315.78125 110.605469 C 316.601562 111.425781 317.378906 112.285156 318.113281 113.179688 C 318.847656 114.078125 319.535156 115.007812 320.179688 115.96875 C 320.824219 116.933594 321.417969 117.925781 321.964844 118.949219 C 322.507812 119.972656 323.003906 121.019531 323.449219 122.089844 C 323.890625 123.160156 324.28125 124.25 324.617188 125.359375 C 324.953125 126.46875 325.234375 127.589844 325.460938 128.726562 C 325.6875 129.867188 325.855469 131.011719 325.96875 132.164062 C 326.082031 133.316406 326.140625 134.472656 326.140625 135.632812 Z M 326.140625 135.632812 "
          fill-opacity="1" fill-rule="nonzero"/>
    <path fill="#000000"
          d="M 314.726562 136.824219 C 314.117188 149.550781 303.636719 159.632812 290.773438 159.632812 C 277.53125 159.632812 266.789062 148.910156 266.789062 135.632812 C 266.789062 122.355469 277.53125 111.632812 290.773438 111.632812 C 296.84375 111.632812 302.417969 113.898438 306.628906 117.648438 C 300.761719 117.9375 296.144531 122.789062 296.144531 128.71875 C 296.144531 134.847656 301.082031 139.789062 307.207031 139.789062 C 310.140625 139.757812 312.78125 138.65625 314.726562 136.824219 Z M 314.726562 136.824219 "
          fill-opacity="1" fill-rule="nonzero"/>
    <path fill="#6f9134"
          d="M 187.085938 78.972656 C 190.367188 134.238281 194.574219 146.734375 197.972656 146.878906 C 201.660156 147.050781 204.042969 132.640625 215.742188 105.414062 C 218.53125 98.960938 221.261719 93.09375 223.84375 87.863281 C 219.113281 85.566406 212.925781 83.070312 205.40625 81.296875 C 198.410156 79.667969 192.136719 79.085938 187.085938 78.972656 Z M 187.085938 78.972656 "
          fill-opacity="1" fill-rule="nonzero"/>
    <path fill="#6f9134"
          d="M 129.070312 81.585938 C 150.90625 132 159.066406 142.285156 162.316406 141.242188 C 165.859375 140.109375 163.160156 125.78125 164.871094 96.171875 C 165.25 89.546875 165.773438 83.417969 166.382812 77.867188 C 160.835938 77.519531 154.273438 77.488281 146.898438 78.246094 C 140.105469 79 134.121094 80.25 129.070312 81.585938 Z M 129.070312 81.585938 "
          fill-opacity="1" fill-rule="nonzero"/>
    <path fill="#6f9134"
          d="M 135.195312 146.472656 C 132.582031 148.855469 119.867188 142.34375 74.132812 101.199219 C 85.921875 94.515625 98.699219 89.402344 111.675781 85.710938 C 113.621094 91.4375 115.859375 97.742188 118.558594 104.511719 C 129.449219 132.089844 137.925781 143.972656 135.195312 146.472656 Z M 135.195312 146.472656 "
          fill-opacity="1" fill-rule="nonzero"/>
    <path fill="#6f9134"
          d="M 107.757812 158.007812 C 106.394531 161.347656 91.699219 160.972656 30.144531 143.011719 C 37.488281 130.578125 47.1875 120.203125 58.335938 111.660156 C 62.984375 116.484375 68.382812 121.832031 74.539062 127.496094 C 96.316406 147.574219 109.121094 154.550781 107.757812 158.007812 Z M 107.757812 158.007812 "
          fill-opacity="1" fill-rule="nonzero"/>
    <g clip-path="url(#3b7744ad98)">
        <path fill="#6f9134"
              d="M 81.945312 182.183594 C 81.886719 185.582031 69.71875 190.113281 15.652344 195.113281 C 15.855469 183.519531 17.800781 171.167969 22.59375 158.644531 C 22.621094 158.558594 22.652344 158.472656 22.710938 158.355469 C 27.90625 160.710938 33.6875 163.207031 39.988281 165.679688 C 67.542969 176.546875 82.003906 178.464844 81.945312 182.183594 Z M 81.945312 182.183594 "
              fill-opacity="1" fill-rule="nonzero"/>
    </g>
    <path fill="#6f9134"
          d="M 21.78125 236.285156 C 19.574219 229.167969 17.628906 220.886719 16.523438 211.820312 C 41.875 210.601562 54.011719 207.460938 55.347656 210.628906 C 56.390625 213.214844 50.265625 219.722656 21.78125 236.285156 Z M 21.78125 236.285156 "
          fill-opacity="1" fill-rule="nonzero"/>
    <path fill="#6f9134"
          d="M 37.984375 271.417969 C 35.28125 267.289062 32.726562 262.875 30.40625 258.136719 C 29.882812 257.09375 29.273438 255.8125 28.632812 254.390625 C 44.574219 247.707031 52.125 243.40625 53.980469 245.554688 C 55.550781 247.386719 52.964844 253.722656 37.984375 271.417969 Z M 37.984375 271.417969 "
          fill-opacity="1" fill-rule="nonzero"/>
    <path fill="#6f9134"
          d="M 219.519531 258.632812 C 209.066406 257.09375 203.722656 256.394531 203.375 254.1875 C 203.113281 252.558594 205.695312 250.148438 214.609375 246.515625 C 214.785156 246.835938 214.988281 247.15625 215.164062 247.445312 C 217.167969 251.046875 218.617188 254.796875 219.519531 258.632812 Z M 219.519531 258.632812 "
          fill-opacity="1" fill-rule="nonzero"/>
    <path fill="#6f9134"
          d="M 220.738281 267.378906 C 220.941406 271.792969 220.535156 276.242188 219.632812 280.65625 C 210.664062 274.585938 206.015625 271.5625 206.683594 269.410156 C 207.179688 267.785156 210.664062 266.738281 220.738281 267.378906 Z M 220.738281 267.378906 "
          fill-opacity="1" fill-rule="nonzero"/>
    <path fill="#6f9134"
          d="M 217.136719 289.578125 C 215.742188 293.5 214.03125 297.277344 211.996094 300.882812 C 206.191406 293.121094 203.199219 289.171875 204.449219 287.457031 C 205.378906 286.121094 208.746094 286.207031 217.136719 289.578125 Z M 217.136719 289.578125 "
          fill-opacity="1" fill-rule="nonzero"/>
    <path fill="#97be48"
          d="M 128.984375 167.652344 C 130.523438 170.09375 127.09375 172.914062 123.84375 183.433594 C 121.984375 189.445312 119.894531 196.1875 122.277344 198.046875 C 125.5 200.574219 132.699219 190.929688 141.265625 192.90625 C 148.292969 194.53125 153.78125 203.421875 151.863281 207.230469 C 150.847656 209.265625 148.148438 208.886719 131.394531 209.320312 C 117.949219 209.671875 115.65625 210.019531 112.664062 207.867188 C 107.699219 204.324219 106.597656 198.105469 105.78125 193.222656 C 104.941406 188.371094 103.082031 177.445312 109.992188 170.761719 C 116.0625 164.980469 126.863281 164.253906 128.984375 167.652344 Z M 128.984375 167.652344 "
          fill-opacity="1" fill-rule="nonzero"/>
    <path fill="#6f9134"
          d="M 356.105469 181.804688 C 355.871094 182.558594 355.613281 183.285156 355.320312 184.011719 C 354.742188 185.496094 354.074219 186.976562 353.316406 188.371094 C 339.527344 191.101562 325.269531 190.929688 311.503906 187.789062 C 307.847656 186.976562 309.414062 181.367188 313.042969 182.183594 C 327.242188 185.40625 341.964844 185.261719 356.105469 181.804688 Z M 356.105469 181.804688 "
          fill-opacity="1" fill-rule="nonzero"/>
</svg>